# xmcd
#
# Track frame offsets: 
#        150
#        13581
#        27021
#        49529
#        64677
#        83797
#        109572
#        127357
#        148980
#        174746
#        190147
#        204610
#        221870
#
# Disc length: 3270 seconds
#
# Revision: 0
# Processed by: cddbd v1.5.1PL0 Copyright (c) Steve Scherf et al.
# Submitted via: ExactAudioCopy v0.95a5
#
DISCID=c00cc40d
DTITLE=Southside Slim - Blues From The South Side
DYEAR=1994
DGENRE=Blues
TTITLE0=Black Jack Whiskey
TTITLE1=Southside Sim
TTITLE2=Back Stabbing Woman
TTITLE3=Sleepless Nights
TTITLE4=Mercedes Blues
TTITLE5=Married Woman
TTITLE6=Younger Days
TTITLE7=Mighty Fine Woman
TTITLE8=Message
TTITLE9=Detroit Woman
TTITLE10=Sunset And Wine
TTITLE11=I'm Feeling Pain
TTITLE12=Guilty Mind
EXTD=
EXTT0=
EXTT1=
EXTT2=
EXTT3=
EXTT4=
EXTT5=
EXTT6=
EXTT7=
EXTT8=
EXTT9=
EXTT10=
EXTT11=
EXTT12=
PLAYORDER=
